<svg xmlns="http://www.w3.org/2000/svg" width="235" height="53" viewBox="0 0 235 53"><defs><filter id="a" width="106.2%" height="131.1%" x="-3.1%" y="-11.1%" filterUnits="objectBoundingBox"><feOffset dy="2" in="SourceAlpha" result="shadowOffsetOuter1"/><feGaussianBlur in="shadowOffsetOuter1" result="shadowBlurOuter1" stdDeviation="2"/><feColorMatrix in="shadowBlurOuter1" result="shadowMatrixOuter1" values="0 0 0 0 0 0 0 0 0 0 0 0 0 0 0 0 0 0 0.1 0"/><feMerge><feMergeNode in="shadowMatrixOuter1"/><feMergeNode in="SourceGraphic"/></feMerge></filter><radialGradient id="b" cx="28.78%" r="71.22%" fx="28.78%" fy="50%" gradientTransform="matrix(1 0 0 .85 0 .07)"><stop offset="0%" stop-color="#FFF"/><stop offset="100%" stop-color="#CCC"/></radialGradient></defs><g fill="none" fill-rule="evenodd" filter="url(#a)" transform="translate(4 2)"><path fill="#FFF" d="M5.92 21.16h2.2c5.45 0 8.16-2.13 8.16-6.4 0-4.13-2.8-6.19-8.4-6.19H5.91v12.59zm0 5.6V43H0V3h6.7c3.3 0 5.77.23 7.45.7a9.94 9.94 0 0 1 4.47 2.64 11.5 11.5 0 0 1 3.38 8.5c0 3.66-1.2 6.56-3.6 8.7-2.41 2.15-5.66 3.22-9.74 3.22H5.92zM49 8.67H34.09v9.62h14.44v5.67H34.09v13.37H49V43H28V3h21zm8 33.9V0l29 30.41V2.71h6V45L63 14.66v27.91zm50.05-21.2h1.92c5.74 0 8.6-2.19 8.6-6.56 0-4.09-2.79-6.14-8.36-6.14h-2.16v12.7zm7.54 4.58L127 43h-7.4l-11.46-16.37h-1.09V43H101V3h7.1c5.29 0 9.12 1 11.47 2.98 2.6 2.21 3.9 5.13 3.9 8.76 0 2.83-.82 5.26-2.44 7.3a10.89 10.89 0 0 1-6.45 3.91zm83.4-17.3l-4.77 2.87c-.9-1.57-1.74-2.6-2.55-3.07a5.89 5.89 0 0 0-3.26-.82c-1.63 0-2.99.47-4.07 1.4a4.39 4.39 0 0 0-1.61 3.49c0 1.93 1.41 3.48 4.24 4.66l3.89 1.6c3.16 1.3 5.48 2.89 6.94 4.76a10.8 10.8 0 0 1 2.2 6.87A12.23 12.23 0 0 1 186.45 43c-3.38-.01-6.18-1.02-8.38-3.05-2.18-2.04-3.53-4.9-4.07-8.58l5.96-1.33c.27 2.32.74 3.93 1.41 4.81a6.12 6.12 0 0 0 5.3 2.56 6.1 6.1 0 0 0 4.58-1.87 6.5 6.5 0 0 0 1.82-4.73 6.73 6.73 0 0 0-.32-2.11 5.4 5.4 0 0 0-.98-1.77 7.94 7.94 0 0 0-1.73-1.51 16 16 0 0 0-2.53-1.34l-3.76-1.59c-5.34-2.29-8-5.63-8-10.03a9.57 9.57 0 0 1 3.35-7.45A12.03 12.03 0 0 1 187.46 2c4.5 0 8 2.22 10.53 6.65m29.01.02h-14.88v9.62h14.4v5.67h-14.4v13.37H227V43h-21V3h21zm-90.54 17.46l-.1-.3a13.5 13.5 0 0 1 .2-7.68 13.15 13.15 0 0 1 6.84-7.62l.01-.01a13.44 13.44 0 0 1 4.95-1.56 13.36 13.36 0 0 1 14.12 9.57l.01.03.08.26a13.48 13.48 0 0 1-.2 7.68 13.7 13.7 0 0 1-6.62 8.06 13.63 13.63 0 0 1-5.07 1.35 13.7 13.7 0 0 1-5.38-.66 13.55 13.55 0 0 1-7.87-6.68c-.4-.77-.73-1.6-.98-2.44m-.37 11.8a20.46 20.46 0 0 0 7.12 3.98 20.55 20.55 0 0 0 15.66-1.04l.06-.03a20.48 20.48 0 0 0 6.13-4.96 20.82 20.82 0 0 0 3.96-7.15 20.56 20.56 0 0 0-1.14-15.43l-.03-.06-.04-.08a17.07 17.07 0 0 0-.86-1.51 20.99 20.99 0 0 0-1.2-1.73A21.03 21.03 0 0 0 163 6.99a20.3 20.3 0 0 0-7.16-4.08 20.14 20.14 0 0 0-15.54 1.45h-.02a20.31 20.31 0 0 0-6.23 4.72 20.09 20.09 0 0 0-5.01 14.35 20.4 20.4 0 0 0 2.15 8.41 20.15 20.15 0 0 0 4.9 6.1"/><path fill="url(#b)" d="M142.54 6.5a17.48 17.48 0 0 0-6.25 10.88c-.25 1.64-.22 3.27-.29 4.91a12.82 12.82 0 0 1 2.13-6.91 14.58 14.58 0 0 1 5.26-4.85 13.57 13.57 0 0 1 9.28-1.34c3.78.83 6.75 3.36 8.7 6.65.5.82 1.93 3.95 2.02 7.38a18.24 18.24 0 0 1-4.48 12.43 17.32 17.32 0 0 1-5.02 3.9c-1.92 1-3.98 1.46-6.13 1.65a16.95 16.95 0 0 1-11.03-2.94l-.07.1a20.41 20.41 0 0 0 6.6 3.57 20.25 20.25 0 0 0 16.65-1.63 20.94 20.94 0 0 0 9.12-11.65 20.98 20.98 0 0 0-1.25-15.69 21.13 21.13 0 0 0-.59-1.1c-1.81-3.16-4.5-5.98-7.83-7.5a15.62 15.62 0 0 0-7.84-1.3 16.5 16.5 0 0 0-8.98 3.44z"/></g></svg>